Coordinates
version=1
nRows=5
nColumns=40
inDegrees=yes

Units are S.I. units (second, meters, Newtons, ...)
Angles are in degrees.

endheader
time	pelvis_tilt	pelvis_list	pelvis_rotation	pelvis_tx	pelvis_ty	pelvis_tz	hip_flexion_r	hip_adduction_r	hip_rotation_r	knee_angle_r	knee_angle_r_beta	ankle_angle_r	subtalar_angle_r	mtp_angle_r	hip_flexion_l	hip_adduction_l	hip_rotation_l	knee_angle_l	knee_angle_l_beta	ankle_angle_l	subtalar_angle_l	mtp_angle_l	lumbar_extension	lumbar_bending	lumbar_rotation	arm_flex_r	arm_add_r	arm_rot_r	elbow_flex_r	pro_sup_r	wrist_flex_r	wrist_dev_r	arm_flex_l	arm_add_l	arm_rot_l	elbow_flex_l	pro_sup_l	wrist_flex_l	wrist_dev_l
     16.04500000	     -3.30185259	     -5.36971103	      6.92012770	      0.86989637	      0.91979021	      0.46784421	     -3.58555544	      6.19276420	    -20.11092286	      7.57947571	      7.57947571	     16.91591483	      4.49715166	     -4.13586557	     31.65563687	     -6.17005019	     -2.38517408	     21.09312289	     21.09312289	      4.32621565	    -10.28556384	      7.56839538	     -6.34298387	      6.49139014	      5.16787151	     42.19329184	    -18.14278939	    -16.31952322	     68.12593784	     45.40585674	      0.00000000	      0.00000000	    -15.39694523	     -6.31676903	      9.82584527	     23.39718749	     43.91974449	      0.00000000	      0.00000000
     16.05735714	     -3.40402549	     -5.27022017	      6.65487537	      0.87077542	      0.91863318	      0.46652396	     -3.97231262	      5.94857306	    -19.84695708	      7.82200850	      7.82200850	     17.29069274	      4.54860371	     -4.12957796	     31.26623419	     -6.10946516	     -2.44313758	     21.92027221	     21.92027221	      4.03499775	    -10.83524986	      7.51606285	     -6.14789208	      6.32350506	      5.13034629	     41.96426959	    -17.82999639	    -16.29660653	     68.38067080	     45.39545629	      0.00000000	      0.00000000	    -15.51598583	     -6.30664690	      9.83661761	     23.37634110	     43.92242010	      0.00000000	      0.00000000
     16.06971429	     -3.54486519	     -5.17302229	      6.36520253	      0.87164229	      0.91757488	      0.46514499	     -4.25827007	      5.67425363	    -19.57936940	      8.16936785	      8.16936785	     17.67211105	      4.54275683	     -4.08007584	     30.88940082	     -6.03121164	     -2.45549683	     22.59503298	     22.59503298	      3.75444336	    -11.34792898	      7.44086136	     -5.95290850	      6.17242023	      5.04613129	     41.59985248	    -17.48793197	    -16.28677210	     68.67390136	     45.38366643	      0.00000000	      0.00000000	    -15.53838117	     -6.29426829	      9.83596190	     23.40260045	     43.92922044	      0.00000000	      0.00000000
     16.08207143	     -3.77368371	     -5.03931334	      6.07012433	      0.87238861	      0.91661569	      0.46355523	     -4.13428979	      5.21596415	    -19.32078622	      9.21051473	      9.21051473	     18.85262441	      4.47588744	     -2.06353625	     30.51026977	     -5.79690599	     -2.16746145	     22.91522382	     22.91522382	      2.87599309	    -12.51261529	      6.21520309	     -5.75431775	      5.96706059	      5.34885865	     40.29376392	    -17.41854845	    -17.01783355	     70.95397294	     45.33921151	      0.00000000	      0.00000000	    -15.21113972	     -6.28616325	      9.75319479	     23.62030217	     44.06329599	      0.00000000	      0.00000000
     16.09442857	     -3.89804654	     -4.86705979	      5.76845530	      0.87309882	      0.91607799	      0.46192615	     -4.20325623	      4.75972342	    -18.96491426	      9.99313229	      9.99313229	     19.17376145	      4.20538950	     -2.00267793	     30.13445623	     -5.62012377	     -2.21364171	     23.38182272	     23.38182272	      2.78915519	    -12.95784275	      5.99875119	     -5.64326806	      5.75486400	      5.24172523	     39.75690650	    -17.06569929	    -16.97606130	     71.00712127	     45.33545931	      0.00000000	      0.00000000	    -14.92456538	     -6.33233768	      9.76502958	     23.57506887	     44.08832781	      0.00000000	      0.00000000
